<svg width="35" height="35" viewBox="0 0 35 35" fill="none" xmlns="http://www.w3.org/2000/svg">
<path d="M27.7084 16.0417H18.9584V7.29166C18.9584 6.90489 18.8047 6.53395 18.5312 6.26046C18.2577 5.98697 17.8868 5.83333 17.5 5.83333C17.1133 5.83333 16.7423 5.98697 16.4688 6.26046C16.1954 6.53395 16.0417 6.90489 16.0417 7.29166V16.0417H7.29171C6.90493 16.0417 6.534 16.1953 6.26051 16.4688C5.98702 16.7423 5.83337 17.1132 5.83337 17.5C5.83337 17.8868 5.98702 18.2577 6.26051 18.5312C6.534 18.8047 6.90493 18.9583 7.29171 18.9583H16.0417V27.7083C16.0417 28.0951 16.1954 28.466 16.4688 28.7395C16.7423 29.013 17.1133 29.1667 17.5 29.1667C17.8868 29.1667 18.2577 29.013 18.5312 28.7395C18.8047 28.466 18.9584 28.0951 18.9584 27.7083V18.9583H27.7084C28.0951 18.9583 28.4661 18.8047 28.7396 18.5312C29.0131 18.2577 29.1667 17.8868 29.1667 17.5C29.1667 17.1132 29.0131 16.7423 28.7396 16.4688C28.4661 16.1953 28.0951 16.0417 27.7084 16.0417Z" fill="white"/>
</svg>
