<svg width="36" height="36" viewBox="0 0 36 36" fill="none" xmlns="http://www.w3.org/2000/svg">
<path fill-rule="evenodd" clip-rule="evenodd" d="M22.8726 9.52738C23.21 9.86493 23.3996 10.3227 23.3996 10.8C23.3996 11.2773 23.21 11.735 22.8726 12.0726L16.9452 18L22.8726 23.9274C23.2004 24.2669 23.3819 24.7215 23.3778 25.1935C23.3737 25.6655 23.1844 26.1169 22.8506 26.4507C22.5169 26.7844 22.0654 26.9737 21.5935 26.9778C21.1215 26.9819 20.6668 26.8005 20.3274 26.4726L13.1274 19.2726C12.7899 18.935 12.6003 18.4773 12.6003 18C12.6003 17.5227 12.7899 17.0649 13.1274 16.7274L20.3274 9.52738C20.6649 9.18993 21.1227 9.00037 21.6 9.00037C22.0773 9.00037 22.535 9.18993 22.8726 9.52738Z" fill="#FAFAFA"/>
</svg>
