<svg width="21" height="22" viewBox="0 0 21 22" fill="none" xmlns="http://www.w3.org/2000/svg">
<path d="M19.8333 4.40003H15.1667V3.30003C15.1667 2.42482 14.7979 1.58545 14.1415 0.966578C13.4852 0.347708 12.5949 3.05176e-05 11.6667 3.05176e-05H9.33333C8.40508 3.05176e-05 7.51484 0.347708 6.85846 0.966578C6.20208 1.58545 5.83333 2.42482 5.83333 3.30003V4.40003H1.16667C0.857247 4.40003 0.560501 4.51592 0.341709 4.72221C0.122916 4.9285 0 5.20829 0 5.50003C0 5.79177 0.122916 6.07156 0.341709 6.27785C0.560501 6.48414 0.857247 6.60003 1.16667 6.60003H2.33333V18.7C2.33333 19.5752 2.70208 20.4146 3.35846 21.0335C4.01484 21.6524 4.90508 22 5.83333 22H15.1667C16.0949 22 16.9852 21.6524 17.6415 21.0335C18.2979 20.4146 18.6667 19.5752 18.6667 18.7V6.60003H19.8333C20.1428 6.60003 20.4395 6.48414 20.6583 6.27785C20.8771 6.07156 21 5.79177 21 5.50003C21 5.20829 20.8771 4.9285 20.6583 4.72221C20.4395 4.51592 20.1428 4.40003 19.8333 4.40003ZM8.16667 3.30003C8.16667 3.00829 8.28958 2.7285 8.50838 2.52221C8.72717 2.31592 9.02391 2.20003 9.33333 2.20003H11.6667C11.9761 2.20003 12.2728 2.31592 12.4916 2.52221C12.7104 2.7285 12.8333 3.00829 12.8333 3.30003V4.40003H8.16667V3.30003ZM16.3333 18.7C16.3333 18.9918 16.2104 19.2716 15.9916 19.4778C15.7728 19.6841 15.4761 19.8 15.1667 19.8H5.83333C5.52391 19.8 5.22717 19.6841 5.00838 19.4778C4.78958 19.2716 4.66667 18.9918 4.66667 18.7V6.60003H16.3333V18.7Z" fill="#FAFAFA"/>
</svg>
