<svg width="34" height="34" viewBox="0 0 34 34" fill="none" xmlns="http://www.w3.org/2000/svg">
<path d="M23.7404 3.33333V3.33336L23.7462 3.33333C23.8668 3.33263 23.9864 3.35575 24.0981 3.40137C24.2095 3.44688 24.3108 3.51387 24.3964 3.59853C24.3966 3.59874 24.3968 3.59895 24.397 3.59916L30.4008 9.60295C30.401 9.60316 30.4012 9.60337 30.4014 9.60358C30.4861 9.6891 30.5531 9.79046 30.5986 9.90186C30.6143 9.9404 30.6274 9.97987 30.6377 10.02L30.541 10.0891L30.5699 10.3775C30.5732 10.4102 30.5732 10.4431 30.5699 10.4758L30.5644 10.5309L30.5711 10.5858C30.5769 10.6342 30.5789 10.6829 30.577 10.7315C30.5287 10.823 30.4685 10.9078 30.3981 10.9838L26.3827 14.9144L26.3827 14.9143L26.3779 14.9191L10.9804 30.4016C10.9802 30.4018 10.9799 30.4021 10.9797 30.4023C10.8888 30.4926 10.78 30.5629 10.6604 30.6085C10.5403 30.6543 10.412 30.6744 10.2838 30.6674L10.2702 30.6667H10.2566H4.24994C4.00683 30.6667 3.77367 30.5701 3.60176 30.3982C3.42985 30.2263 3.33328 29.9931 3.33328 29.75L3.33328 23.7433L3.33327 23.7404C3.33257 23.6198 3.35569 23.5002 3.40131 23.3885C3.44682 23.2771 3.51381 23.1758 3.59847 23.0902C3.59868 23.09 3.59889 23.0898 3.5991 23.0896L19.0818 7.60689L23.0896 3.59916C23.0898 3.59895 23.09 3.59874 23.0902 3.59853C23.1757 3.51387 23.2771 3.44688 23.3885 3.40137C23.5002 3.35575 23.6197 3.33263 23.7404 3.33333ZM9.67578 28.8333H9.88288L10.0293 28.6869L24.0968 14.6194L24.4504 14.2658L24.0968 13.9123L20.0877 9.90312L19.7341 9.54956L19.3806 9.90312L5.31306 23.9706L5.16661 24.1171V24.3242V28.3333V28.8333H5.66661H9.67578ZM25.3872 12.6219L25.742 12.9767L26.0956 12.6206L28.0931 10.609L28.4441 10.2554L28.0918 9.90312L24.0968 5.90812L23.7445 5.55581L23.391 5.90687L21.3793 7.90437L21.0233 8.25792L21.3781 8.61272L25.3872 12.6219Z" fill="white" stroke="#FAFAFA"/>
</svg>
