<svg width="31" height="27" viewBox="0 0 31 27" fill="none" xmlns="http://www.w3.org/2000/svg">
<path d="M15.4999 5.84201L14.7084 4.81681C14.1895 4.14472 13.6062 3.57571 12.9693 3.11442L12.9693 3.11438C11.7169 2.20712 10.3048 1.75 8.74807 1.75C6.63909 1.75 4.7265 2.5384 3.33998 3.94692L15.4999 5.84201ZM15.4999 5.84201L16.2915 4.81686M15.4999 5.84201L16.2915 4.81686M16.2915 4.81686C16.8106 4.14453 17.3937 3.57573 18.0303 3.11443L16.2915 4.81686ZM11.456 22.2445L11.4561 22.2446L11.4596 22.2474C12.5109 23.0867 13.7075 24.042 14.9506 25.06L14.9513 25.0605C15.0942 25.1778 15.2883 25.25 15.5 25.25C15.7116 25.25 15.9059 25.1776 16.0482 25.0609L16.0488 25.0605C17.2824 24.0499 18.471 23.101 19.5169 22.266L19.5445 22.2439L19.5446 22.2439C22.6507 19.7646 25.234 17.6985 27.0163 15.6841L27.0163 15.684C28.973 13.4726 29.8 11.4799 29.8 9.36356C29.8 7.25508 29.03 5.33919 27.6597 3.94697C26.2732 2.5384 24.3608 1.75 22.2518 1.75C20.6952 1.75 19.2831 2.20708 18.0305 3.11433L11.456 22.2445ZM11.456 22.2445C8.34948 19.7649 5.76612 17.6985 3.98387 15.6843C2.02706 13.4726 1.19995 11.4798 1.19995 9.36378C1.19995 7.2551 1.96987 5.33923 3.33989 3.94701L11.456 22.2445Z" stroke="white" stroke-width="2"/>
</svg>
