<svg width="29" height="25" viewBox="0 0 29 25" fill="none" xmlns="http://www.w3.org/2000/svg">
<path d="M14.7044 0.599586L14.7045 0.59963L28.1422 11.073L27.5673 11.8001L26.2695 10.7881L25.4621 10.1585V11.1824L25.4621 23.0759C25.4621 23.0762 25.4621 23.0764 25.4621 23.0767C25.4611 23.4539 25.3108 23.8153 25.0441 24.0821C24.7774 24.3488 24.416 24.499 24.0388 24.5C24.0385 24.5 24.0382 24.5 24.038 24.5H4.80879C4.80851 24.5 4.80823 24.5 4.80795 24.5C4.43079 24.499 4.06933 24.3488 3.80262 24.0821L3.44906 24.4356L3.80262 24.0821C3.53581 23.8153 3.38554 23.4536 3.38467 23.0763V11.1738V10.1499L2.57722 10.7795L1.2794 11.7914L0.704437 11.0643L14.125 0.599586C14.2078 0.535049 14.3098 0.5 14.4147 0.5C14.5197 0.5 14.6216 0.535048 14.7044 0.599586ZM16.3465 23.5769H16.8465V23.0769V15.3844V14.8844H16.3465H12.5003H12.0003V15.3844V23.0769V23.5769H12.5003H16.3465ZM17.7696 23.0769V23.5769H18.2696H24.039H24.539V23.0769V9.6843V9.44019L24.3465 9.29005L14.7309 1.7899L14.4236 1.55019L14.1161 1.78971L4.50052 9.28025L4.30779 9.43038V9.67469V23.0769V23.5769H4.80779H10.5771H11.0771V23.0769V15.3849C11.0775 15.0075 11.2276 14.6456 11.4945 14.3787C11.7614 14.1118 12.1233 13.9617 12.5008 13.9613H16.346C16.7234 13.9617 17.0853 14.1118 17.3522 14.3787C17.6191 14.6456 17.7692 15.0075 17.7696 15.3849V23.0769Z" stroke="white"/>
</svg>
