<svg width="25" height="25" viewBox="0 0 25 25" fill="none" xmlns="http://www.w3.org/2000/svg">
<path d="M22.0359 18.4335L14.921 3.95627C14.6671 3.44274 14.2779 3.01109 13.7969 2.70947C13.3159 2.40786 12.762 2.24814 12.197 2.24814C11.632 2.24814 11.0781 2.40786 10.5971 2.70947C10.1161 3.01109 9.72694 3.44274 9.47302 3.95627L2.35812 18.4335C2.07862 19.0049 1.97911 19.65 2.07317 20.281C2.16723 20.912 2.45028 21.4981 2.88373 21.9594C3.31717 22.4208 3.87992 22.7349 4.49525 22.8589C5.11057 22.983 5.74853 22.9109 6.32214 22.6526L11.7803 20.1708C11.9122 20.1145 12.0539 20.0855 12.197 20.0855C12.3401 20.0855 12.4818 20.1145 12.6137 20.1708L18.0719 22.6526C18.6455 22.9109 19.2835 22.983 19.8988 22.8589C20.5141 22.7349 21.0769 22.4208 21.5103 21.9594C21.9437 21.4981 22.2268 20.912 22.3209 20.281C22.4149 19.65 22.3154 19.0049 22.0359 18.4335ZM20.0031 20.5017C19.858 20.6554 19.6698 20.7598 19.4642 20.8005C19.2586 20.8412 19.0457 20.8163 18.8545 20.7292L13.3964 18.2577C13.0061 18.081 12.5836 17.9896 12.1564 17.9896C11.7291 17.9896 11.3066 18.081 10.9163 18.2577L5.49884 20.7602C5.30874 20.8443 5.09792 20.8672 4.89466 20.8259C4.69139 20.7846 4.5054 20.681 4.36163 20.5291C4.21785 20.3772 4.12316 20.1842 4.09025 19.976C4.05734 19.7678 4.08779 19.5543 4.17751 19.3642L11.2924 4.88695C11.3777 4.71756 11.5073 4.57541 11.6669 4.47615C11.8265 4.37689 12.0099 4.32436 12.197 4.32436C12.3841 4.32436 12.5675 4.37689 12.7271 4.47615C12.8867 4.57541 13.0163 4.71756 13.1016 4.88695L20.2165 19.3642C20.3085 19.5536 20.3412 19.7672 20.3103 19.9761C20.2794 20.185 20.1864 20.3792 20.0437 20.5327L20.0031 20.5017Z" fill="#A7A7A7"/>
</svg>
